<?xml version="1.0" standalone="no"?>
<!DOCTYPE svg PUBLIC "-//W3C//DTD SVG 20010904//EN"
 "http://www.w3.org/TR/2001/REC-SVG-20010904/DTD/svg10.dtd">
<svg version="1.0" xmlns="http://www.w3.org/2000/svg"
 width="613.000000pt" height="1000.000000pt" viewBox="0 0 613.000000 1000.000000"
 preserveAspectRatio="xMidYMid meet">

<g transform="translate(0.000000,1000.000000) scale(0.100000,-0.100000)"
fill="#000000" stroke="none">
<path d="M2195 9985 c-318 -59 -542 -190 -672 -392 -18 -29 -35 -53 -36 -53
-2 0 -61 -11 -131 -25 -302 -58 -403 -167 -450 -490 -46 -310 -66 -715 -75
-1525 -8 -635 -3 -597 -77 -710 -134 -207 -243 -539 -245 -746 0 -38 -4 -78
-8 -89 -15 -37 -75 69 -161 282 -101 248 -138 303 -210 303 -46 0 -80 -41 -80
-97 -1 -30 -4 -28 -37 24 -9 14 -12 -124 -12 -627 l-1 -645 110 -136 c139
-174 157 -184 315 -183 133 0 177 17 260 95 l55 52 0 -36 c0 -45 -26 -75 -105
-122 -138 -82 -302 -98 -414 -41 -73 38 -142 110 -185 192 l-35 69 -1 -88 0
-87 57 -98 c140 -238 343 -360 578 -350 107 5 166 28 265 106 l65 51 8 -32
c24 -94 109 -212 181 -249 33 -17 67 -23 168 -28 71 -4 130 -9 133 -12 10 -10
-17 -177 -45 -278 -50 -177 -69 -270 -80 -390 -14 -143 -49 -251 -118 -357
-104 -163 -138 -297 -129 -513 6 -148 48 -463 107 -797 11 -61 24 -176 29
-255 13 -213 22 -232 183 -391 148 -146 220 -198 322 -228 164 -49 169 -55
177 -229 7 -135 26 -206 87 -326 64 -127 196 -261 310 -316 89 -42 193 -49
274 -19 71 27 149 99 180 166 22 48 23 58 22 305 -1 140 -3 325 -5 410 -4 147
-3 159 24 238 55 167 23 345 -80 448 -36 37 -143 94 -175 94 -10 0 -24 10 -32
23 -13 18 -14 48 -6 192 9 184 9 183 58 267 59 102 73 158 81 323 6 141 8 153
35 200 42 72 180 210 240 240 42 21 64 25 135 25 48 0 104 -5 126 -11 54 -15
163 -89 251 -172 89 -83 127 -154 148 -277 18 -107 46 -181 98 -261 65 -101
77 -136 88 -264 12 -134 19 -115 -91 -255 -28 -36 -65 -95 -82 -132 -35 -74
-30 -71 -172 -113 -152 -46 -201 -116 -212 -310 -6 -107 4 -161 53 -287 36
-92 36 -94 31 -203 -3 -60 -15 -182 -28 -270 -18 -134 -20 -170 -11 -229 20
-131 112 -264 219 -317 38 -19 64 -23 129 -24 75 0 87 3 160 40 141 71 248
206 288 362 9 34 23 133 32 220 8 87 20 173 26 192 13 43 88 124 143 156 22
13 73 35 112 48 129 44 217 109 296 217 64 89 97 119 181 168 120 69 208 157
256 256 80 164 119 368 89 473 -10 36 -14 138 -14 423 0 317 -3 388 -18 456
-34 157 -95 303 -201 473 -25 41 -59 116 -76 167 -18 52 -56 133 -88 186 -31
51 -69 128 -84 172 -35 100 -65 151 -133 225 -30 32 -55 61 -55 64 0 2 37 8
83 11 91 8 207 43 266 80 21 13 56 45 78 70 47 54 79 61 89 19 3 -16 15 -62
26 -103 17 -66 18 -83 8 -137 -15 -77 -7 -122 31 -190 l30 -52 -33 -62 c-45
-86 -45 -168 0 -329 28 -100 32 -131 32 -232 0 -116 0 -118 30 -152 42 -47 89
-62 129 -41 39 20 58 56 71 141 6 38 18 79 26 91 19 30 59 30 75 2 6 -12 24
-104 40 -205 37 -238 44 -266 70 -287 23 -19 70 -22 99 -7 10 5 28 27 41 47
12 21 24 40 25 42 2 2 15 -4 28 -13 14 -9 34 -16 45 -16 20 0 56 38 66 71 5
14 16 19 44 19 58 0 74 18 79 89 4 49 7 61 19 57 44 -17 65 -17 83 -1 26 23
26 71 0 154 -11 35 -19 65 -18 65 2 1 15 7 31 14 15 6 27 19 27 27 0 37 -75
174 -187 341 -66 99 -128 194 -137 212 -20 39 -15 62 13 62 31 0 78 46 97 95
13 35 15 57 8 98 -9 57 -9 127 -4 372 4 158 4 161 -28 255 -41 122 -47 152
-71 346 -27 209 -43 260 -122 373 -88 125 -109 167 -109 218 0 64 -20 100 -94
173 -82 80 -94 101 -94 169 -1 37 -8 68 -25 100 -79 149 -87 168 -96 243 -6
56 -18 93 -41 135 -112 202 -121 222 -140 320 -10 54 -26 127 -34 163 -12 53
-15 175 -16 675 -1 738 -12 1125 -35 1210 -28 106 -70 182 -137 249 -130 129
-294 216 -410 216 -43 0 -60 15 -94 81 -59 118 -256 281 -422 350 -164 68
-176 69 -972 68 -538 -1 -732 -4 -785 -14z m1640 -109 c139 -50 229 -102 325
-189 l53 -47 -429 2 -429 3 -120 33 c-100 28 -144 34 -260 39 -176 6 -300 -11
-466 -67 l-119 -40 -365 0 c-279 0 -365 3 -365 12 0 7 24 35 53 63 59 55 213
140 317 175 143 48 148 49 960 47 l765 -2 80 -29z m-738 -261 c107 -21 281
-79 383 -128 217 -106 401 -298 515 -540 88 -184 111 -344 102 -701 -4 -141
-12 -258 -20 -301 -49 -235 -158 -423 -323 -559 -229 -189 -526 -277 -883
-263 -405 17 -736 170 -911 423 -135 196 -180 434 -165 889 9 282 36 412 118
576 82 163 231 339 362 426 123 82 282 148 431 177 94 19 294 19 391 1z
m-1617 -199 c0 -32 -23 -54 -63 -61 -161 -27 -277 -33 -277 -16 0 40 167 96
298 100 38 1 42 -1 42 -23z m3165 -58 c108 -56 105 -60 -38 -53 -158 7 -177
14 -177 56 l0 32 83 -5 c63 -4 94 -11 132 -30z m-3177 -77 c23 -14 30 -120 21
-361 -4 -129 -11 -365 -14 -523 -7 -256 -9 -290 -25 -310 -25 -30 -33 -17 -21
29 14 54 15 94 13 377 l-2 247 -225 0 -225 0 0 -221 0 -222 179 5 179 5 4 -28
c6 -37 1 -38 -227 -39 l-190 -2 3 114 c11 428 63 830 116 904 13 17 32 20 153
25 227 9 247 9 261 0z m486 -48 c-68 -104 -126 -225 -168 -355 -3 -11 -15 -18
-31 -18 -14 0 -25 2 -25 4 0 14 66 189 87 230 25 50 127 166 146 166 5 0 1
-12 -9 -27z m2069 -94 c87 -111 175 -305 150 -330 -19 -19 -40 2 -57 56 -26
82 -99 224 -161 310 -30 42 -55 79 -55 82 0 16 72 -53 123 -118z m728 86 c70
-16 78 -20 92 -51 36 -75 73 -336 88 -628 10 -194 7 -272 -8 -287 -5 -4 -83
-11 -175 -15 l-168 -7 0 25 c0 14 7 29 16 32 9 3 73 6 144 6 106 0 131 3 145
17 15 14 16 40 13 210 -2 159 -6 195 -18 203 -20 13 -331 13 -364 0 -21 -8
-26 -16 -27 -47 l-1 -38 -9 40 c-5 22 -25 86 -45 143 -31 92 -35 115 -35 204
0 95 7 175 17 207 6 19 231 10 335 -14z m-2995 -469 c-3 -22 -9 -219 -12 -436
-4 -235 -11 -400 -17 -407 -25 -32 -125 -5 -178 48 -31 31 -39 46 -39 75 l0
37 25 -27 c20 -21 33 -26 75 -26 41 0 56 5 75 25 53 52 15 142 -73 169 -17 6
-29 0 -52 -22 -16 -17 -32 -27 -34 -24 -7 14 -6 181 3 302 10 133 43 284 68
312 15 17 81 27 137 19 27 -3 28 -5 22 -45z m2540 -15 c60 -27 64 -41 11 -41
-63 0 -92 -25 -92 -80 0 -34 6 -47 31 -68 l31 -27 -9 -120 c-5 -66 -6 -141 -3
-166 7 -61 0 -76 -45 -99 -49 -25 -57 -51 -64 -190 -6 -130 -23 -203 -70 -305
-35 -74 -98 -165 -128 -184 -33 -21 -21 24 26 91 79 114 115 206 143 368 14
77 17 165 18 467 l0 373 55 0 c32 0 72 -8 96 -19z m73 -97 c38 -31 39 -37 46
-305 l5 -217 -37 19 c-20 10 -45 19 -54 19 -27 0 -32 45 -24 263 6 200 6 202
-13 180 -21 -24 -32 -21 -32 9 0 60 56 77 109 32z m-3081 -11 c95 -71 94 -200
-2 -244 -52 -23 -90 -23 -142 0 -56 25 -84 64 -84 115 0 90 74 161 159 153 24
-3 55 -13 69 -24z m3479 -2 c49 -23 73 -55 80 -109 12 -86 -62 -156 -162 -156
-92 0 -145 49 -145 134 0 61 22 94 82 124 62 31 89 32 145 7z m-278 -406 c0
-195 -11 -267 -22 -150 -9 89 -9 201 0 288 11 121 23 50 22 -138z m-3385 -77
c13 -19 16 -58 16 -228 0 -113 5 -261 10 -330 5 -69 12 -170 16 -226 l7 -101
-117 -119 -116 -119 2 535 c2 411 6 540 16 557 12 22 84 51 129 52 12 1 29 -9
37 -21z m3726 -427 c0 -202 -3 -370 -6 -374 -4 -3 -24 8 -45 26 l-39 32 0 207
c0 206 0 207 25 236 24 28 25 37 25 146 0 114 1 116 20 106 19 -10 20 -21 20
-379z m-416 255 c-9 -36 -34 -47 -124 -53 l-77 -6 -6 32 c-8 39 1 64 20 57 42
-16 121 -18 149 -3 35 18 48 10 38 -27z m-2922 -28 c74 -91 74 -90 40 -150
-16 -29 -40 -84 -52 -121 -23 -72 -46 -85 -44 -26 1 19 3 69 5 112 2 60 -1 81
-13 93 -14 14 -21 10 -74 -39 l-59 -55 3 -155 c3 -148 2 -157 -18 -177 -15
-15 -25 -19 -32 -12 -18 18 -32 250 -19 308 19 83 99 193 181 247 35 24 44 22
82 -25z m3063 -156 c16 -48 21 -177 6 -168 -4 3 -11 32 -13 64 -3 32 -20 91
-37 131 -17 40 -31 76 -31 80 2 18 61 -69 75 -107z m-2750 -61 c19 -62 35
-115 35 -119 0 -3 -13 7 -29 22 -17 16 -35 51 -46 87 -15 49 -22 59 -38 57
-11 -2 -25 -11 -31 -21 -37 -58 206 -513 360 -675 45 -46 76 -72 84 -67 19 12
28 48 19 77 -10 36 9 37 71 6 35 -19 51 -37 85 -97 58 -104 73 -118 131 -126
27 -4 110 -18 184 -32 160 -30 363 -40 477 -25 91 13 539 122 596 145 60 26
108 63 204 159 87 86 118 105 97 58 -5 -12 -34 -49 -64 -83 -145 -166 -254
-225 -543 -297 l-198 -50 -269 0 c-304 0 -369 7 -541 56 -263 75 -366 160
-537 440 -147 240 -152 246 -122 133 37 -143 175 -390 285 -509 61 -66 79 -95
105 -163 51 -130 96 -220 127 -249 15 -14 84 -49 152 -77 l124 -51 456 0 457
0 95 26 c51 14 117 28 145 31 60 6 52 14 147 -147 l62 -104 3 -306 c3 -304 0
-350 -18 -350 -6 0 -10 118 -10 320 0 299 -1 323 -20 359 -24 48 -70 87 -118
101 -25 8 -277 10 -803 8 l-765 -3 -42 -27 c-22 -15 -54 -49 -69 -75 l-28 -48
0 -345 c0 -341 0 -346 24 -400 37 -85 96 -172 154 -227 100 -95 36 -88 765
-91 453 -2 655 1 684 9 28 7 55 25 83 55 22 25 44 42 48 38 20 -20 6 -75 -29
-113 -70 -78 -51 -76 -744 -76 -744 0 -767 2 -851 90 -20 19 -68 89 -107 154
-40 65 -80 125 -89 132 -33 28 -6 -80 47 -187 88 -176 145 -260 218 -320 58
-48 192 -122 347 -190 l40 -18 -37 -4 c-64 -6 -266 81 -374 161 -107 78 -261
301 -333 481 -20 50 -64 132 -97 181 -33 50 -66 105 -72 124 -17 48 -15 272 3
377 9 49 39 159 69 244 52 154 53 155 84 158 28 3 32 0 32 -20 0 -13 -11 -58
-25 -100 -15 -48 -31 -137 -41 -235 -17 -156 -17 -159 4 -278 12 -67 22 -132
22 -146 0 -18 7 -28 27 -35 23 -8 29 -18 37 -64 8 -38 16 -55 26 -55 24 0 27
121 3 147 -16 18 -18 38 -15 197 3 131 7 182 18 198 8 12 14 45 14 73 0 60 14
97 74 193 64 102 109 213 101 246 -16 64 -26 56 -89 -66 -40 -77 -67 -119 -79
-121 -24 -5 -22 3 54 174 57 128 70 174 49 174 -5 0 -18 -17 -29 -38 -19 -37
-48 -69 -55 -61 -3 2 -21 56 -41 119 -47 147 -99 276 -191 471 -84 180 -160
397 -170 485 -8 78 6 124 53 165 32 28 133 83 140 76 1 -2 18 -54 38 -116z
m-421 -93 c-4 -68 -8 -125 -10 -127 -3 -3 -10 1 -17 8 -17 17 -16 167 2 209
25 60 32 36 25 -90z m2751 -136 c-53 -101 -96 -153 -276 -339 -144 -150 -202
-187 -185 -119 4 16 73 87 177 183 170 157 210 205 290 348 28 49 35 56 37 38
2 -13 -17 -62 -43 -111z m-2132 -99 c109 -115 318 -236 487 -282 206 -56 519
-72 715 -37 269 49 448 130 620 284 63 56 81 55 45 -3 -80 -129 -369 -273
-645 -320 -126 -22 -399 -26 -505 -7 -266 48 -334 68 -495 147 -208 101 -365
253 -365 352 0 27 1 26 42 -22 24 -27 69 -78 101 -112z m-458 -28 c14 -57 58
-168 119 -303 80 -176 95 -215 86 -232 -6 -11 -15 -20 -20 -20 -20 0 -9 -15
18 -28 35 -15 43 -31 87 -184 53 -181 53 -191 17 -228 -60 -59 -74 -40 -92
120 -6 58 -19 123 -29 145 -10 22 -74 132 -142 245 -95 157 -142 223 -201 285
-42 44 -79 77 -82 74 -3 -3 28 -56 68 -117 80 -121 211 -378 245 -478 74 -224
96 -413 51 -458 -17 -17 -23 -2 -80 217 -84 323 -158 507 -229 571 -28 26 -27
12 9 -75 41 -99 67 -206 80 -325 19 -173 40 -266 81 -364 23 -52 43 -105 46
-117 8 -36 -24 -29 -62 13 -37 40 -55 78 -84 179 -11 39 -37 98 -58 132 -47
78 -144 194 -195 234 -62 49 -47 11 42 -108 81 -109 160 -246 148 -258 -9 -9
-43 11 -89 52 -22 20 -41 34 -44 32 -2 -3 21 -45 52 -94 66 -108 126 -225 115
-225 -12 0 -81 76 -159 175 -65 83 -133 156 -133 144 0 -3 22 -55 49 -115 53
-121 96 -242 88 -251 -3 -3 -50 16 -105 41 -54 25 -112 46 -129 46 -25 0 -36
7 -52 34 -47 75 -121 88 -192 33 -60 -45 -96 -101 -115 -177 -9 -36 -24 -74
-34 -84 -18 -19 -19 -19 -26 9 -29 117 60 541 123 582 15 10 59 19 112 23 99
9 144 27 166 70 26 50 19 74 -35 127 -28 26 -60 52 -70 57 -11 5 -20 13 -20
18 0 25 55 106 169 247 20 25 79 82 131 129 56 49 102 99 111 121 9 20 36 55
60 78 48 46 146 104 168 100 9 -1 22 -35 36 -92z m2711 -38 l27 -23 -110 -205
c-60 -112 -130 -248 -156 -302 l-47 -99 25 -30 c14 -16 25 -37 25 -46 0 -9
-23 -65 -51 -124 -53 -113 -56 -130 -34 -235 13 -58 -10 -36 -55 53 -46 91
-81 124 -132 124 l-28 0 26 68 c31 82 84 180 179 332 92 145 165 282 205 385
32 80 62 125 86 125 7 0 25 -10 40 -23z m222 -13 c12 -8 22 -26 22 -38 0 -13
-30 -75 -67 -137 -96 -164 -169 -323 -218 -473 -55 -166 -69 -240 -63 -321 6
-72 -4 -83 -43 -44 -20 20 -21 28 -15 113 8 115 31 213 96 401 63 182 183 471
206 497 21 22 52 23 82 2z m95 -237 c12 -8 31 -30 41 -50 19 -35 19 -36 -2
-101 -23 -68 -28 -106 -14 -106 4 0 40 54 81 121 61 99 76 118 84 104 15 -28
-1 -112 -44 -224 -21 -58 -39 -106 -39 -108 0 -14 40 8 120 67 52 38 98 69
103 70 15 0 6 -33 -28 -107 -19 -42 -35 -79 -35 -83 0 -4 34 -23 75 -41 41
-19 75 -38 75 -42 0 -5 -18 -39 -40 -76 -30 -51 -40 -78 -40 -112 0 -24 -5
-64 -11 -88 -5 -24 -7 -46 -5 -49 3 -3 20 6 38 20 44 33 96 60 136 69 39 9 42
-6 12 -81 -27 -67 -26 -80 6 -80 34 0 64 -17 64 -36 0 -40 -31 -73 -87 -94
-101 -38 -174 -83 -243 -150 -59 -57 -123 -150 -104 -150 4 0 46 35 93 78 138
125 249 191 390 231 116 32 111 15 -16 -56 -111 -61 -195 -138 -228 -208 -14
-30 -25 -56 -25 -59 0 -19 31 2 94 62 84 79 166 125 273 153 80 21 132 19 152
-5 9 -11 -5 -20 -71 -46 -147 -58 -327 -158 -301 -167 6 -2 44 5 83 17 96 28
115 25 115 -20 0 -34 -3 -36 -80 -75 -92 -47 -177 -122 -272 -242 -37 -46 -68
-83 -71 -83 -6 0 5 111 14 133 9 25 -23 21 -75 -8 -50 -29 -67 -31 -75 -9 -10
27 -7 59 13 117 11 32 18 57 16 57 -2 0 -21 -8 -40 -17 -36 -17 -37 -17 -56 7
-43 56 -48 122 -19 229 12 40 19 76 16 79 -3 2 -36 -25 -74 -62 -38 -36 -74
-66 -80 -66 -6 0 -14 11 -18 25 -7 28 3 54 100 258 64 136 81 177 73 177 -3 0
-49 -54 -102 -120 -53 -66 -111 -130 -127 -142 l-31 -22 6 26 c4 15 36 79 72
143 36 64 65 121 65 128 0 7 -43 -33 -96 -88 -92 -97 -96 -99 -107 -77 -8 19
-6 44 12 120 13 53 38 167 56 252 18 85 45 193 60 238 14 46 24 86 22 88 -3 3
-19 -17 -36 -43 -36 -53 -61 -133 -121 -373 -23 -91 -46 -169 -51 -175 -34
-34 -38 110 -8 276 42 234 85 372 170 540 l40 81 40 -5 c22 -3 50 -12 62 -20z
m-988 -47 c11 -19 -14 -37 -84 -63 -84 -31 -190 -52 -203 -39 -21 21 29 52
132 81 115 32 146 36 155 21z m-1053 -47 c94 -27 119 -45 82 -60 -17 -6 -167
23 -196 38 -10 5 -22 18 -28 29 -9 18 -7 20 17 20 15 0 72 -12 125 -27z m538
-63 c-18 -12 -257 -12 -285 0 -12 5 41 9 140 9 107 1 155 -3 145 -9z m-2172
-211 c57 -20 81 -89 42 -124 -11 -10 -46 -20 -87 -26 -37 -4 -78 -11 -90 -15
-30 -8 -30 7 2 73 26 57 66 103 88 103 8 0 28 -5 45 -11z m1496 -108 c227 -74
407 -97 691 -88 250 7 407 38 538 104 27 13 51 22 54 19 13 -12 -10 -75 -35
-99 -107 -102 -634 -164 -989 -116 -115 15 -281 57 -333 83 -70 35 -117 136
-64 136 10 0 72 -18 138 -39z m1751 -418 c56 -64 120 -237 113 -307 -2 -25
-16 2 -76 144 -40 96 -72 178 -72 183 0 13 11 7 35 -20z m-451 -43 c14 -5 33
-22 43 -37 17 -25 18 -52 15 -333 -3 -293 -4 -306 -24 -322 -19 -17 -72 -18
-814 -18 l-793 0 -12 21 c-16 32 -8 616 9 647 30 52 22 51 814 52 445 0 747
-4 762 -10z m-2630 -151 c42 -45 81 -90 87 -102 11 -19 9 -20 -22 -14 -19 3
-42 8 -52 12 -27 11 -12 -18 65 -125 61 -84 79 -120 63 -120 -6 0 -307 159
-314 166 -4 4 48 185 69 240 5 13 14 24 19 24 5 0 43 -36 85 -81z m-126 -290
c74 -41 182 -138 182 -164 0 -10 -33 3 -106 40 -64 33 -125 57 -155 61 -27 4
-49 10 -49 15 0 21 33 89 44 89 6 0 44 -18 84 -41z m4549 6 c44 -13 93 -48 82
-59 -2 -3 -26 0 -52 6 -50 10 -97 5 -97 -12 0 -6 15 -10 33 -10 54 0 131 -28
158 -56 l24 -27 -30 8 c-67 16 -138 21 -202 14 -85 -10 -256 -92 -304 -146
l-31 -36 55 -56 c67 -68 87 -106 87 -163 0 -59 -32 -108 -114 -174 l-68 -54
-27 19 c-65 47 -101 119 -101 206 0 75 25 130 110 245 78 105 161 186 251 246
101 67 138 75 226 49z m-3957 -53 c0 -61 -32 -267 -46 -293 -11 -22 -14 -83
-14 -301 0 -150 -4 -278 -8 -285 -10 -15 -84 -32 -142 -33 -139 0 -224 84
-206 204 4 25 11 46 15 46 5 0 14 -21 20 -47 8 -28 25 -59 46 -80 32 -32 36
-33 113 -33 74 0 80 2 85 22 4 12 5 24 3 25 -2 2 -32 8 -67 14 -139 21 -149
67 -57 282 30 70 54 97 84 97 36 0 35 32 -1 52 l-30 16 26 12 c23 11 29 26 58
149 36 156 49 181 92 181 25 0 29 -4 29 -28z m2991 -34 c14 -54 17 -191 4
-198 -10 -5 -33 135 -34 208 -1 45 16 40 30 -10z m-3591 -71 c79 -53 147 -115
179 -164 17 -25 31 -50 31 -54 0 -4 -57 22 -127 58 -114 59 -130 64 -168 58
-41 -6 -42 -5 -49 26 -8 40 -8 113 0 133 5 13 11 13 47 -6 23 -11 62 -34 87
-51z m3215 30 c24 -45 39 -47 55 -7 16 38 30 38 30 0 0 -27 -144 -431 -174
-489 l-13 -23 -21 27 c-27 34 -27 39 -3 156 11 52 27 137 36 189 30 171 35
191 53 188 10 -2 26 -20 37 -41z m-2393 -263 c46 -82 54 -101 43 -112 -10 -11
-17 -11 -34 -3 -30 16 -29 -12 1 -33 45 -32 168 -200 155 -212 -2 -3 -39 28
-82 68 -45 42 -75 64 -72 53 4 -11 11 -42 17 -70 19 -86 45 -130 124 -208 143
-140 308 -235 494 -284 92 -24 117 -26 482 -34 212 -5 430 -7 485 -4 86 5 98
4 82 -8 -17 -14 -85 -37 -236 -79 -99 -27 -118 -48 -43 -48 49 0 214 14 300
26 23 3 42 1 42 -3 0 -5 -41 -31 -92 -58 l-92 -50 44 -3 c24 -2 85 4 136 12
103 18 173 21 158 7 -5 -5 -126 -61 -269 -124 -169 -75 -287 -121 -337 -132
-43 -9 -78 -18 -78 -21 0 -2 12 -9 27 -15 33 -12 196 10 334 46 52 13 233 72
402 130 170 58 323 105 340 105 l32 0 -30 -20 c-17 -11 -94 -60 -173 -108
-211 -129 -384 -255 -494 -361 -54 -52 -101 -92 -103 -89 -3 3 11 40 30 82 40
89 39 89 -65 34 l-55 -29 -150 5 c-82 3 -190 8 -240 12 -80 6 -88 5 -75 -9 22
-22 200 -84 264 -92 56 -7 106 -35 106 -59 0 -17 -66 -26 -193 -26 -91 0 -98
-1 -86 -17 23 -27 91 -53 140 -53 52 0 83 -18 77 -46 -4 -22 -52 -32 -163 -33
l-71 -1 -54 56 c-115 117 -398 308 -605 409 -146 71 -500 205 -540 205 -17 -1
-14 -6 15 -32 72 -63 179 -124 455 -259 275 -134 286 -141 353 -209 91 -91
180 -259 170 -321 l-3 -21 -28 22 c-15 12 -30 20 -32 18 -3 -2 7 -25 20 -51
43 -79 30 -88 -30 -22 -30 33 -54 55 -55 49 0 -7 9 -42 21 -79 11 -37 19 -69
17 -71 -3 -2 -23 22 -45 54 -50 71 -129 164 -148 175 -19 10 20 -80 69 -162
46 -76 78 -142 73 -147 -3 -3 -17 10 -32 28 -61 75 -206 215 -299 290 -85 67
-101 77 -109 63 -5 -11 -5 -32 1 -58 13 -49 9 -57 -26 -58 -15 0 -36 -4 -47
-9 -22 -9 -22 -9 50 -31 96 -29 192 -95 292 -203 63 -66 84 -111 99 -208 13
-80 -7 -106 -238 -310 -81 -72 -148 -135 -148 -139 0 -19 127 38 210 94 25 17
88 64 140 105 86 68 95 73 98 53 14 -95 -236 -337 -502 -486 -41 -23 -46 -29
-32 -37 11 -6 35 -4 73 7 123 36 198 88 374 262 72 71 119 111 123 104 4 -6 2
-36 -4 -66 -8 -40 -28 -77 -72 -140 -157 -220 -381 -423 -582 -527 l-111 -57
50 0 c62 0 222 53 301 100 32 19 98 73 147 122 49 48 91 87 94 87 13 0 -10
-106 -37 -172 -56 -137 -160 -257 -307 -354 -46 -30 -83 -57 -83 -61 0 -3 41
-3 90 1 54 4 90 3 90 -3 0 -25 -251 -101 -335 -101 -67 0 -149 41 -232 115
-73 65 -208 239 -198 255 4 7 57 -37 134 -113 100 -98 142 -131 195 -157 65
-30 86 -34 71 -11 -3 6 -34 30 -68 53 -78 53 -173 147 -221 220 -57 85 -46 94
48 41 137 -75 120 -51 -90 130 -125 108 -132 122 -155 325 -10 92 -19 173 -19
180 0 8 35 -22 78 -65 58 -60 95 -88 152 -116 78 -38 174 -67 223 -67 39 0 27
14 -39 44 -85 39 -242 145 -334 227 -81 71 -110 114 -110 163 0 25 1 25 76
-24 107 -70 163 -76 262 -29 71 35 112 84 180 216 35 67 94 161 133 210 38 48
69 92 69 97 0 4 -12 5 -27 1 -79 -19 -92 -18 -104 8 -10 21 -8 31 7 58 42 71
101 88 239 66 45 -7 48 -6 31 7 -10 9 -50 27 -87 42 -38 14 -79 34 -91 44
l-23 18 34 43 c40 49 60 99 61 151 0 31 -5 40 -35 58 -87 54 -260 48 -383 -12
l-65 -32 -23 28 c-49 56 -22 108 97 189 78 54 81 57 51 57 -18 0 -60 -14 -93
-31 -33 -16 -65 -29 -70 -27 -5 2 19 84 53 183 57 167 62 187 64 280 6 190 27
385 42 385 4 0 43 -38 87 -84 136 -142 235 -192 530 -271 251 -67 544 -116
590 -99 26 10 17 21 -22 29 -67 12 -527 167 -546 183 -14 13 -15 18 -5 29 11
10 52 10 215 1 181 -10 246 -8 231 7 -3 3 -74 26 -159 50 -85 25 -219 67 -298
95 -80 27 -146 48 -148 46 -2 -1 9 -24 23 -50 14 -26 24 -49 22 -52 -3 -2 -62
41 -131 96 -70 55 -127 96 -127 92 0 -5 45 -75 100 -155 55 -81 95 -147 90
-147 -5 0 -33 9 -61 19 -94 36 -279 197 -340 296 -24 38 -71 161 -83 217 -8
33 21 510 33 558 20 78 20 78 65 28 23 -25 66 -90 98 -144z m3812 112 c51 -25
113 -82 102 -94 -3 -2 -51 12 -106 32 -55 21 -105 36 -111 34 -6 -2 28 -36 74
-75 77 -66 177 -181 177 -205 0 -5 -27 11 -60 37 -63 48 -153 95 -184 95 -13
0 0 -20 51 -77 38 -43 98 -113 132 -157 64 -81 135 -207 129 -231 -2 -9 -26 1
-77 30 -84 50 -141 65 -246 65 -146 0 -241 -35 -342 -125 -33 -30 -64 -55 -67
-55 -3 0 -6 12 -6 26 0 51 66 166 145 254 97 107 108 130 109 206 0 50 -6 71
-32 117 -46 82 -42 101 33 142 49 27 207 16 279 -19z m-895 -112 c62 -66 74
-102 74 -219 0 -112 -14 -152 -77 -220 -46 -48 -89 -47 -123 4 -13 19 -22 39
-20 44 2 6 24 16 49 24 28 8 56 24 68 41 20 24 22 36 18 122 -5 109 -19 146
-68 169 -65 32 -62 81 5 81 26 0 41 -9 74 -46z m-708 -63 c0 -45 -8 -109 -17
-144 -31 -121 -119 -257 -195 -301 l-33 -20 22 35 c48 72 86 159 137 309 86
251 87 252 86 121z m-3073 25 c49 -53 69 -91 78 -145 12 -77 -4 -80 -40 -5
-18 38 -52 94 -75 124 -22 30 -41 58 -41 62 0 22 42 3 78 -36z m1547 9 c51
-50 16 -125 -57 -125 -28 0 -46 7 -63 25 -30 30 -32 64 -4 99 28 36 89 37 124
1z m508 13 c79 -42 49 -138 -43 -138 -51 0 -80 27 -80 74 0 59 67 94 123 64z
m602 -13 c31 -30 33 -77 5 -105 -29 -29 -90 -27 -120 4 -69 75 44 173 115 101z
m972 -132 c-3 -38 -37 -214 -77 -393 -77 -353 -79 -364 -87 -357 -4 5 139 753
153 800 11 37 17 14 11 -50z m-262 -13 c20 -22 19 -50 -11 -213 -16 -89 -18
-94 -64 -137 -33 -32 -99 -71 -223 -132 -176 -87 -255 -118 -212 -83 11 9 86
64 167 121 194 138 217 167 259 320 22 82 48 144 59 144 4 0 15 -9 25 -20z
m-3657 -42 c-11 -32 -205 -138 -252 -138 -14 0 -43 7 -62 15 -48 20 -135 85
-129 95 3 5 30 -3 61 -17 30 -14 83 -30 117 -36 80 -13 156 7 212 57 42 37 60
45 53 24z m230 -61 c3 -40 -1 -63 -14 -88 l-19 -34 -3 84 c-2 46 0 91 3 99 11
28 28 -5 33 -61z m2712 -179 c0 -14 -46 -38 -120 -63 -228 -78 -500 -91 -715
-34 -80 21 -254 84 -267 97 -4 4 243 7 547 7 305 0 555 -3 555 -7z m2056 -129
c17 -5 42 -21 55 -36 l24 -26 -30 7 c-184 45 -307 25 -472 -75 -45 -27 -84
-49 -87 -49 -17 0 23 65 61 100 54 50 112 78 190 89 65 10 212 4 259 -10z
m-742 -43 c-8 -21 -107 -67 -149 -69 -16 0 -54 0 -82 1 -49 2 -53 4 -53 27 0
24 1 25 84 24 69 -1 92 3 137 23 56 26 75 24 63 -6z m-3685 13 c45 -16 40 -40
-22 -104 -57 -59 -80 -67 -97 -35 -8 15 -5 31 16 72 42 85 45 87 103 67z m342
-26 c2 -43 -4 -89 -25 -176 l-22 -92 -107 -3 c-59 -1 -124 2 -145 7 -36 10
-112 64 -112 80 0 4 17 13 38 19 44 13 73 38 108 93 28 45 40 51 144 71 105
21 120 21 121 1z m2639 -20 c-42 -54 -179 -157 -268 -202 -89 -45 -55 5 61 91
56 42 213 138 225 138 2 0 -6 -12 -18 -27z m1475 -33 c32 -12 99 -60 93 -66
-2 -2 -32 6 -67 16 -150 47 -316 5 -473 -121 -20 -16 -39 -29 -42 -29 -3 0 -6
13 -6 29 0 57 122 154 227 181 48 12 228 5 268 -10z m-34 -110 c11 -7 18 -14
15 -17 -3 -3 -49 -14 -103 -24 -53 -10 -101 -23 -105 -27 -5 -5 -6 -21 -3 -35
7 -25 7 -25 133 -29 115 -3 132 -6 184 -31 79 -39 169 -141 107 -122 -12 4
-42 21 -66 39 -44 31 -46 31 -166 30 -171 -1 -258 -29 -363 -120 -29 -24 -57
-44 -63 -44 -30 0 0 78 65 173 19 27 34 60 34 73 0 37 26 91 52 108 63 42 222
56 279 26z m56 -336 c35 -27 36 -29 15 -32 -12 -2 -42 4 -66 13 -24 9 -68 20
-97 24 -51 7 -52 8 -29 19 14 7 50 10 82 9 44 -2 64 -9 95 -33z m-97 -45 c53
-24 42 -38 -30 -40 -53 -1 -94 -14 -70 -22 8 -3 41 -11 73 -17 33 -7 69 -22
85 -35 l27 -23 -40 -7 c-22 -4 -53 -10 -70 -15 l-30 -8 37 -16 c43 -18 58 -41
58 -86 0 -54 -14 -67 -77 -75 -114 -14 -210 -66 -240 -131 -14 -29 -15 -39 -3
-75 8 -22 14 -62 14 -87 0 -60 -34 -232 -45 -232 -25 0 -38 49 -38 145 0 55
-5 118 -10 140 -6 22 -11 58 -11 80 0 23 -9 53 -20 70 -11 17 -20 46 -20 66 0
72 77 278 123 328 57 62 196 81 287 40z m-1405 -35 c-16 -14 -122 -87 -235
-161 -201 -133 -270 -185 -344 -259 -105 -105 -199 -241 -253 -364 -27 -62
-36 -75 -55 -75 -18 0 -26 9 -36 40 -20 58 -8 120 33 183 46 69 229 258 324
334 197 158 493 328 571 327 l25 0 -30 -25z m202 -70 c2 -6 -19 -39 -45 -75
-37 -48 -77 -84 -158 -139 -131 -90 -283 -234 -370 -350 -85 -114 -179 -301
-206 -412 -19 -80 -23 -86 -40 -77 -33 18 -40 55 -28 153 8 67 20 110 46 165
19 41 32 76 29 79 -10 11 -102 -95 -128 -148 -15 -29 -30 -75 -33 -102 -4 -26
-9 -48 -12 -48 -3 0 -23 12 -44 26 -47 33 -47 44 -4 156 65 172 143 267 338
411 338 250 475 343 548 370 24 9 103 3 107 -9z m223 -109 c36 -19 60 -52 60
-85 0 -38 -13 -51 -60 -61 -52 -12 -450 -216 -450 -231 0 -6 8 -7 18 -3 51 20
157 37 227 37 80 0 165 -23 210 -56 17 -12 26 -11 68 5 52 21 79 18 110 -9 17
-15 16 -17 -30 -28 -26 -6 -64 -18 -83 -27 -33 -14 -38 -14 -90 8 -68 29 -173
49 -216 41 -17 -4 -45 -17 -60 -29 -24 -18 -42 -22 -115 -23 -62 -2 -99 -8
-132 -22 -97 -43 -166 -139 -154 -214 8 -45 99 -312 126 -370 30 -63 47 -77
66 -52 26 35 17 85 -41 219 -31 72 -59 149 -62 172 -10 87 37 141 147 168 74
18 112 15 166 -13 17 -9 72 -19 127 -22 165 -12 263 -74 363 -230 25 -38 45
-72 45 -75 0 -10 -39 -5 -75 10 -20 9 -45 13 -56 10 -20 -7 -220 -175 -248
-208 -20 -25 -11 -22 113 33 66 29 127 50 147 50 l34 -1 -35 -30 c-62 -54
-179 -116 -280 -150 -55 -18 -97 -36 -93 -42 16 -27 261 19 427 80 109 40 150
70 193 141 l28 47 3 -44 c7 -93 -63 -208 -175 -288 -37 -26 -127 -78 -201
-114 -74 -36 -130 -69 -125 -72 20 -13 128 15 208 52 44 21 120 63 170 94 49
31 91 54 94 52 12 -12 -87 -135 -207 -257 -75 -76 -133 -138 -130 -138 3 0 59
18 123 40 133 46 199 77 268 127 27 19 51 33 53 30 6 -6 -24 -115 -50 -179
-59 -147 -136 -249 -271 -365 -46 -40 -54 -51 -35 -47 102 22 229 81 328 151
34 24 62 39 62 32 0 -23 -87 -95 -248 -203 -89 -60 -160 -111 -158 -114 16
-15 174 62 301 147 49 33 91 59 93 57 10 -11 -34 -83 -80 -132 -62 -66 -139
-121 -232 -165 -36 -17 -66 -34 -66 -37 0 -17 108 16 193 58 55 28 101 49 103
48 1 -2 -6 -18 -18 -36 -39 -62 -202 -156 -330 -192 -136 -38 -242 -21 -371
57 -60 36 -207 167 -207 184 0 17 19 8 106 -50 138 -90 238 -136 286 -129 18
2 -22 33 -167 129 -147 97 -206 143 -259 200 -63 68 -105 129 -90 129 4 0 40
-27 81 -61 98 -81 169 -123 264 -154 134 -45 139 -29 13 44 -61 35 -149 91
-197 125 -127 91 -262 226 -239 240 5 3 67 -33 138 -80 71 -47 151 -97 179
-111 44 -23 48 -23 35 -5 -8 11 -82 80 -164 153 -176 158 -262 261 -321 384
-44 91 -65 175 -44 175 6 0 54 -27 107 -59 119 -73 236 -121 311 -128 55 -4
56 -4 35 14 -12 11 -122 80 -245 154 -122 74 -238 149 -256 167 -29 29 -33 39
-33 86 0 72 33 194 78 291 76 163 276 388 482 542 123 92 213 141 292 158 82
18 84 18 118 0z m1160 -91 c6 -14 10 -30 10 -35 0 -10 -69 -12 -94 -3 -38 14
-3 64 45 64 22 0 32 -6 39 -26z m-141 -139 c7 -22 14 -64 15 -94 1 -51 -1 -55
-25 -61 -33 -9 -44 10 -61 111 -9 59 -9 72 3 80 28 19 54 5 68 -36z m161 25
c6 -10 13 -47 17 -81 l6 -62 -29 7 c-41 10 -44 15 -51 89 l-6 67 26 0 c16 0
30 -8 37 -20z m121 10 c12 0 46 -77 55 -124 5 -28 3 -37 -10 -42 -30 -12 -63
22 -75 76 -16 74 -15 103 5 96 9 -3 20 -6 25 -6z m-436 -94 c29 -97 14 -166
-35 -166 -14 0 -22 11 -30 40 -5 22 -15 58 -21 81 -13 51 -4 94 24 114 20 14
23 14 35 -2 7 -10 19 -40 27 -67z m335 -116 c5 -10 13 -49 16 -87 l7 -69 -35
4 c-34 4 -36 5 -42 55 -9 79 -7 115 7 120 18 6 36 -3 47 -23z m130 10 c24 -13
47 -90 56 -187 8 -87 -1 -92 -45 -27 -31 47 -35 63 -46 167 -7 60 -2 67 35 47z
m-4056 -36 c22 -9 20 -21 -13 -73 -45 -70 -83 -177 -141 -386 -57 -211 -84
-278 -135 -341 -48 -59 -131 -98 -191 -91 -99 11 -192 105 -202 205 -6 65 55
296 103 392 82 163 208 248 420 284 92 16 137 19 159 10z m3765 -18 c19 -23
27 -125 10 -130 -49 -17 -53 -14 -66 58 -10 56 -10 71 0 78 19 12 43 9 56 -6z
m-767 -53 c47 -45 82 -125 105 -236 17 -87 13 -122 -14 -122 -14 0 -199 222
-218 262 -23 48 -19 100 9 128 22 22 29 23 53 14 15 -5 45 -26 65 -46z m937
-110 c8 -16 31 -173 31 -216 0 -14 -6 -18 -27 -15 -32 4 -37 21 -48 160 -7 85
-6 88 14 88 11 0 24 -8 30 -17z m-138 -60 c16 -72 16 -188 0 -228 -12 -28 -13
-29 -26 -11 -8 10 -17 39 -20 65 -3 25 -12 84 -19 131 -8 47 -12 88 -9 93 2 4
17 7 33 7 27 0 29 -4 41 -57z m259 -65 c0 -50 -13 -64 -24 -25 -3 12 -6 45 -6
72 1 48 1 49 15 25 8 -14 14 -46 15 -72z m-2078 -1285 c9 -10 34 -63 58 -118
67 -160 97 -209 197 -321 92 -102 110 -134 58 -100 -68 45 -209 217 -285 349
-25 42 -49 77 -54 77 -16 0 6 -57 62 -155 71 -126 168 -313 176 -342 12 -38
-14 -27 -65 29 -26 29 -51 49 -55 45 -8 -8 56 -155 92 -210 l24 -37 48 25 c26
14 63 25 82 25 38 0 200 -41 200 -51 0 -19 -67 -33 -181 -37 -157 -5 -169 0
-294 120 -51 48 -95 88 -98 88 -13 0 8 -36 100 -171 51 -77 93 -148 93 -158 0
-18 -3 -18 -50 -6 -155 41 -242 133 -298 317 -49 159 -38 286 38 445 41 86
115 203 129 203 4 0 15 -8 23 -17z m-1176 -258 c35 -74 33 -170 -6 -294 -30
-97 -62 -161 -79 -161 -6 0 4 29 20 65 66 140 77 268 34 390 -30 83 -29 81 -8
64 9 -8 27 -36 39 -64z m-1216 -144 c63 -60 217 -172 251 -181 72 -21 252 12
418 77 62 24 115 42 117 40 3 -2 -15 -22 -40 -45 -71 -66 -33 -74 59 -11 153
103 181 94 59 -20 -54 -51 -102 -84 -163 -114 -85 -42 -87 -42 -196 -42 -122
0 -189 17 -320 83 -152 76 -270 199 -289 302 l-7 35 38 -45 c21 -25 54 -60 73
-79z m2074 52 c4 -10 -1 -27 -13 -43 -70 -88 -109 -203 -97 -285 10 -60 29
-54 37 12 9 73 82 223 108 223 4 0 18 -55 30 -123 19 -114 20 -127 6 -175 -14
-48 -14 -54 5 -104 11 -29 20 -56 20 -60 0 -18 -32 -5 -81 32 -30 23 -73 46
-97 52 -78 20 -122 107 -122 242 1 105 28 155 125 224 36 26 71 28 79 5z
m-1149 -253 c-43 -83 -165 -160 -264 -168 -50 -4 -54 -3 -41 11 8 9 51 34 95
56 44 23 112 65 150 95 39 29 71 50 73 45 2 -4 -4 -22 -13 -39z m1211 -355
c101 -49 214 -142 214 -177 0 -24 -15 -20 -120 28 -78 37 -214 133 -224 160
-18 48 15 45 130 -11z m-1226 7 c0 -5 -14 -19 -31 -31 -51 -38 -23 -46 75 -21
48 13 89 20 92 18 2 -3 -28 -33 -67 -66 -39 -34 -64 -62 -57 -62 7 0 42 9 78
20 86 26 102 26 98 -2 -2 -15 -17 -30 -43 -43 -59 -29 -258 -28 -331 1 -73 30
-146 82 -142 102 3 15 16 17 87 14 95 -4 106 11 28 37 -96 33 -82 41 71 41 78
0 142 -4 142 -8z m1145 -119 c17 -9 89 -48 160 -88 78 -44 161 -82 208 -96 83
-24 103 -42 71 -66 -15 -11 -45 -14 -134 -11 -107 4 -119 6 -180 37 -89 46
-177 107 -196 136 -11 17 -14 36 -9 70 8 50 13 51 80 18z m-826 -119 c-34 -36
-136 -84 -179 -84 -21 0 -51 -7 -66 -15 -35 -18 -99 -19 -180 -4 -52 10 -104
40 -104 59 0 4 33 -2 73 -13 132 -34 278 -9 410 71 45 28 63 34 65 24 2 -8 -6
-25 -19 -38z m-581 -14 c10 -11 24 -38 31 -60 18 -61 44 -72 185 -82 109 -8
134 -6 244 15 l122 24 0 -92 c0 -79 -3 -97 -23 -126 -61 -90 -202 -125 -309
-77 -30 14 -70 39 -90 57 -42 36 -125 162 -169 254 -42 89 -37 136 9 87z
m1450 -129 c65 -32 142 -66 171 -75 93 -27 103 -38 100 -107 -1 -32 -1 -61 2
-63 2 -3 33 33 67 80 91 122 103 108 23 -29 -42 -73 -133 -173 -180 -196 -117
-59 -259 -10 -324 113 -19 36 -22 57 -22 171 0 138 5 165 30 165 8 0 68 -27
133 -59z"/>
<path d="M2685 9560 c-371 -78 -646 -316 -776 -671 -43 -118 -58 -206 -70
-419 -23 -388 13 -652 113 -830 122 -219 356 -377 675 -457 99 -25 124 -27
298 -27 157 0 207 4 287 21 462 103 725 348 819 763 26 115 43 486 29 628 -13
126 -48 248 -104 368 -158 334 -453 556 -835 628 -116 22 -320 20 -436 -4z
m381 -101 c185 -26 382 -108 539 -227 106 -79 172 -157 226 -267 45 -93 65
-164 80 -290 6 -49 18 -106 26 -125 19 -43 33 -90 28 -90 -3 0 -32 18 -65 39
-118 76 -282 131 -502 167 -158 26 -803 32 -959 9 -188 -27 -387 -102 -494
-187 l-49 -40 -8 27 c-10 40 8 180 37 281 31 108 90 235 143 306 86 116 260
257 394 317 172 78 400 109 604 80z m-750 -942 c-121 -217 -170 -624 -106
-885 29 -119 27 -123 -26 -72 -51 50 -124 191 -144 276 -17 76 -18 397 -1 464
28 113 86 201 155 237 32 17 149 52 154 47 2 -1 -12 -32 -32 -67z"/>
<path d="M3740 8996 c0 -2 16 -45 35 -94 19 -50 41 -126 48 -170 15 -83 22
-102 38 -102 19 0 8 106 -20 187 -29 85 -101 212 -101 179z"/>
<path d="M1163 8616 c-72 -32 -95 -126 -44 -176 55 -55 129 -52 181 7 28 31
31 42 27 76 -11 79 -93 125 -164 93z"/>
<path d="M4633 8595 c-37 -16 -55 -45 -55 -91 0 -102 121 -137 199 -59 90 90
-20 204 -144 150z"/>
<path d="M2250 5961 c-23 -12 -45 -37 -63 -72 -25 -47 -28 -62 -24 -116 6 -78
34 -125 91 -152 76 -37 135 -24 194 44 39 43 46 69 40 144 -9 130 -133 209
-238 152z"/>
<path d="M2152 4058 c12 -35 369 -186 416 -175 23 4 -167 100 -296 148 -110
42 -126 45 -120 27z"/>
<path d="M1870 3769 c129 -82 204 -135 267 -188 39 -34 75 -61 78 -61 17 0
-47 89 -95 132 -58 52 -191 123 -250 133 l-35 6 35 -22z"/>
<path d="M1828 2883 c-43 -44 -84 -128 -94 -192 l-7 -44 39 7 c57 11 153 66
188 109 16 20 27 39 24 42 -3 3 -47 -15 -99 -39 -52 -25 -96 -41 -97 -35 -2 5
14 40 36 77 55 94 64 112 54 112 -4 0 -24 -17 -44 -37z"/>
<path d="M3840 2851 c0 -11 116 -167 131 -176 15 -10 10 18 -12 60 -21 40 -96
125 -111 125 -4 0 -8 -4 -8 -9z"/>
<path d="M3940 2410 c16 -30 117 -108 182 -141 85 -43 243 -80 212 -49 -14 14
-383 210 -395 210 -6 0 -6 -7 1 -20z"/>
<path d="M4770 2223 c-79 -48 -139 -88 -133 -90 19 -7 121 37 180 77 59 39
124 100 107 100 -5 0 -74 -39 -154 -87z"/>
</g>
</svg>
