<?xml version="1.0" standalone="no"?>
<!DOCTYPE svg PUBLIC "-//W3C//DTD SVG 20010904//EN"
 "http://www.w3.org/TR/2001/REC-SVG-20010904/DTD/svg10.dtd">
<svg version="1.0" xmlns="http://www.w3.org/2000/svg"
 width="801.000000pt" height="600.000000pt" viewBox="0 0 801.000000 600.000000"
 preserveAspectRatio="xMidYMid meet">

<g transform="translate(0.000000,600.000000) scale(0.100000,-0.100000)"
fill="#000000" stroke="none">
<path d="M3907 4812 c-23 -32 -127 -188 -232 -345 -104 -158 -193 -287 -197
-287 -3 0 -199 101 -433 226 -256 134 -436 224 -449 222 -12 -2 -22 -11 -24
-24 -2 -12 33 -113 77 -225 306 -782 364 -925 379 -942 33 -36 73 -48 220 -62
449 -44 952 -46 1417 -5 176 16 217 26 250 60 20 21 86 179 242 577 118 301
217 562 220 578 3 21 0 35 -11 44 -13 11 -79 -20 -456 -219 -243 -128 -442
-231 -444 -229 -1 2 -101 150 -221 329 -120 179 -225 333 -233 343 -29 33 -59
21 -105 -41z"/>
<path d="M7093 2665 c-56 -24 -82 -113 -47 -163 35 -50 112 -66 164 -35 63 37
77 125 27 170 -49 45 -88 53 -144 28z"/>
<path d="M367 2634 c-141 -34 -253 -118 -309 -232 -30 -60 -33 -75 -33 -157 0
-116 24 -174 104 -248 77 -71 162 -109 370 -169 291 -83 371 -140 371 -264 0
-161 -144 -269 -360 -269 -184 0 -313 80 -340 209 l-6 31 -82 3 -82 3 0 -59
c0 -140 134 -277 320 -328 90 -25 290 -25 379 0 217 59 341 205 341 401 0 103
-28 174 -97 247 -73 76 -157 116 -378 179 -99 28 -204 63 -233 77 -235 115
-156 397 121 430 191 23 356 -56 389 -185 l10 -43 85 0 86 0 -5 44 c-17 150
-159 288 -340 331 -78 18 -234 18 -311 -1z"/>
<path d="M6620 1895 l0 -735 85 0 85 0 0 735 0 735 -85 0 -85 0 0 -735z"/>
<path d="M1350 2395 l0 -135 -85 0 -85 0 0 -70 0 -70 85 0 85 0 0 -368 c0
-392 3 -427 49 -491 55 -77 184 -128 290 -116 86 10 87 11 70 92 l-15 68 -76
5 c-57 4 -82 10 -98 25 -48 42 -50 62 -50 435 l0 350 120 0 120 0 0 70 0 70
-120 0 -120 0 0 135 0 135 -85 0 -85 0 0 -135z"/>
<path d="M7580 2395 l0 -135 -85 0 -85 0 0 -70 0 -70 85 0 85 0 0 -373 c0
-322 2 -380 17 -422 23 -68 93 -137 164 -161 56 -19 161 -24 213 -11 26 7 28
10 21 45 -3 20 -11 54 -16 75 l-10 37 -64 0 c-74 0 -108 12 -132 49 -16 23
-18 62 -21 394 l-3 367 116 0 115 0 0 70 0 70 -115 0 -115 0 0 135 0 135 -85
0 -85 0 0 -135z"/>
<path d="M2325 2262 c-65 -22 -118 -63 -152 -118 -15 -24 -31 -44 -35 -44 -5
0 -8 36 -8 80 l0 80 -80 0 -80 0 0 -550 0 -550 85 0 85 0 0 368 c0 405 2 424
60 494 17 20 56 49 88 65 50 24 68 28 145 28 l87 -1 0 83 0 83 -72 0 c-42 -1
-94 -8 -123 -18z"/>
<path d="M2995 2268 c-118 -22 -245 -113 -308 -220 -100 -172 -114 -439 -31
-626 79 -180 241 -282 449 -284 152 -2 275 42 360 127 43 42 85 111 85 138 0
7 -26 20 -64 30 -36 9 -71 20 -79 23 -10 3 -18 -2 -22 -16 -11 -34 -74 -99
-119 -123 -35 -19 -57 -22 -151 -22 -100 0 -115 2 -161 27 -97 51 -162 151
-179 276 l-7 52 401 0 401 0 0 98 c0 53 -7 126 -15 161 -63 265 -290 411 -560
359z m161 -149 c32 -6 78 -22 101 -35 79 -45 143 -159 143 -251 l0 -33 -315 0
c-254 0 -315 3 -315 13 0 32 34 126 61 169 45 70 120 121 202 138 59 11 57 11
123 -1z"/>
<path d="M4100 2269 c-79 -14 -172 -60 -231 -116 -54 -50 -96 -120 -82 -134
10 -10 120 -49 139 -49 7 0 22 15 33 33 29 47 99 94 167 112 164 43 295 -16
323 -144 15 -71 14 -84 -9 -114 -24 -30 -30 -32 -200 -52 -301 -36 -414 -85
-472 -203 -32 -67 -32 -195 1 -269 49 -110 166 -186 309 -199 147 -14 277 41
359 151 l22 30 0 -77 1 -78 85 0 85 0 0 373 c0 386 -6 466 -42 549 -29 69
-111 140 -190 167 -74 25 -216 35 -298 20z m358 -666 c-6 -125 -19 -162 -78
-227 -104 -113 -338 -124 -429 -21 -72 82 -44 202 58 254 41 21 96 33 260 56
63 9 128 22 145 30 17 7 35 14 40 14 5 1 6 -47 4 -106z"/>
<path d="M5287 2269 c-84 -20 -171 -85 -197 -149 -21 -51 -30 -34 -30 55 l0
85 -80 0 -80 0 0 -550 0 -550 85 0 84 0 3 393 3 392 27 45 c53 91 122 133 218
133 104 0 184 -56 209 -148 7 -26 11 -179 11 -427 l0 -388 85 0 85 0 0 384 c0
415 2 430 55 501 40 52 104 78 189 78 111 0 191 -52 216 -141 6 -22 10 -190
10 -429 l0 -393 85 0 85 0 0 393 c0 241 -4 416 -11 452 -22 117 -81 199 -179
244 -75 35 -216 36 -302 2 -56 -22 -137 -89 -169 -140 l-15 -24 -33 52 c-71
109 -215 163 -354 130z"/>
<path d="M7060 1710 l0 -550 85 0 85 0 0 550 0 550 -85 0 -85 0 0 -550z"/>
</g>
</svg>
