<?xml version="1.0" standalone="no"?>
<!DOCTYPE svg PUBLIC "-//W3C//DTD SVG 20010904//EN"
 "http://www.w3.org/TR/2001/REC-SVG-20010904/DTD/svg10.dtd">
<svg version="1.0" xmlns="http://www.w3.org/2000/svg"
 width="800.000000pt" height="600.000000pt" viewBox="0 0 800.000000 600.000000"
 preserveAspectRatio="xMidYMid meet">

<g transform="translate(0.000000,600.000000) scale(0.100000,-0.100000)"
fill="#000000" stroke="none">
<path d="M1835 4081 c-107 -32 -1128 -429 -1179 -459 l-31 -18 -3 -148 c-3
-165 -4 -162 67 -206 l43 -27 -53 -29 -54 -29 -3 -151 -3 -152 29 -23 c16 -13
38 -30 48 -37 13 -9 15 -14 7 -18 -7 -3 -27 -15 -45 -28 l-33 -22 -3 -148 c-2
-105 1 -153 10 -163 21 -26 124 -73 618 -280 615 -259 580 -246 661 -241 53 4
89 16 186 61 67 31 242 108 389 172 519 225 630 276 667 306 l38 31 -3 151 -3
152 -47 25 -46 24 46 31 47 30 3 149 c3 169 1 173 -74 202 l-43 16 59 39 60
39 0 149 c0 147 0 150 -25 169 -13 11 -37 24 -52 30 -323 128 -1012 394 -1053
406 -69 20 -149 19 -225 -3z m192 -157 c43 14 81 26 85 26 4 0 -4 -24 -17 -53
l-23 -54 80 -29 c44 -16 82 -32 84 -35 2 -4 -38 -10 -88 -14 -122 -9 -130 -13
-152 -74 -10 -28 -21 -51 -25 -51 -4 0 -24 29 -44 64 l-38 64 -100 7 c-163 12
-168 16 -61 54 l92 32 -25 49 c-14 27 -25 51 -25 54 0 2 40 -12 90 -31 l89
-35 78 26z m-487 -230 c117 -27 183 -85 153 -133 -17 -27 -74 -61 -132 -78
-78 -24 -285 -24 -362 -1 -59 19 -115 52 -133 80 -16 26 4 69 44 92 90 53 296
72 430 40z m509 -368 l-91 -134 -132 55 c-72 30 -166 69 -210 86 -43 17 -73
33 -66 35 15 5 547 90 573 91 13 1 -6 -34 -74 -133z"/>
<path d="M6118 3881 l-33 -29 -3 -206 -3 -205 -32 20 c-53 33 -154 59 -226 59
-264 -1 -471 -213 -471 -485 0 -363 362 -594 682 -434 55 28 57 28 63 9 10
-33 54 -60 97 -60 30 0 46 7 69 29 l29 29 0 622 0 622 -29 29 c-41 41 -98 41
-143 0z m-198 -592 c99 -45 151 -123 158 -239 4 -63 1 -85 -18 -128 -27 -63
-101 -133 -158 -150 -130 -39 -265 23 -321 148 -27 59 -28 169 -2 226 62 136
214 200 341 143z"/>
<path d="M6489 3881 c-26 -26 -29 -36 -29 -90 0 -52 4 -65 28 -91 57 -64 150
-42 172 41 25 93 -20 169 -102 169 -30 0 -46 -7 -69 -29z"/>
<path d="M3864 3510 c-54 -22 -54 -20 -54 -478 l0 -424 29 -29 c41 -41 101
-41 142 0 l29 29 0 201 c0 179 2 206 21 257 50 134 152 237 247 249 64 8 88
19 108 51 47 71 -4 154 -95 154 -69 0 -172 -34 -226 -75 -53 -41 -55 -41 -55
-14 0 64 -79 106 -146 79z"/>
<path d="M4700 3504 c-142 -38 -266 -158 -321 -310 -31 -83 -31 -235 0 -318
57 -158 190 -280 342 -315 63 -15 185 -13 248 4 73 19 152 60 195 102 42 42
48 85 15 127 -17 22 -29 26 -68 26 -33 0 -56 -6 -74 -20 -42 -33 -107 -52
-183 -52 -82 0 -139 20 -199 73 -37 33 -89 125 -79 141 3 4 153 8 334 8 l329
0 28 24 c26 22 28 30 26 88 -7 198 -148 371 -346 424 -67 18 -177 17 -247 -2z
m257 -200 c61 -29 122 -86 145 -134 l17 -35 -139 -3 c-77 -1 -203 -1 -280 0
l-139 3 20 45 c34 75 99 129 184 151 48 13 136 1 192 -27z"/>
<path d="M6511 3506 c-50 -28 -50 -32 -51 -479 l0 -419 29 -29 c41 -41 98 -41
143 0 l33 29 3 399 c2 266 0 410 -8 435 -19 67 -89 97 -149 64z"/>
<path d="M7023 3500 c-126 -41 -204 -132 -211 -246 -10 -157 82 -245 314 -299
144 -35 198 -61 202 -102 4 -42 -40 -78 -115 -93 -73 -16 -147 3 -237 60 -76
48 -124 53 -161 16 -71 -71 -35 -147 105 -220 89 -47 161 -66 245 -66 247 0
427 190 360 380 -37 105 -146 177 -335 220 -52 12 -108 27 -125 34 -64 27 -69
69 -12 105 73 45 161 35 266 -29 75 -47 136 -39 167 22 21 40 12 88 -23 122
-15 15 -64 46 -111 68 -77 39 -91 42 -175 45 -71 2 -106 -2 -154 -17z"/>
</g>
</svg>
